<?xml version="1.0" encoding="UTF-8" standalone="no"?>
<!-- Created with Inkscape (http://www.inkscape.org/) -->

<svg
   width="367.05991mm"
   height="123.61881mm"
   viewBox="0 0 367.05992 123.61881"
   version="1.1"
   id="svg1"
   inkscape:version="1.4.2 (ebf0e940d0, 2025-05-08)"
   sodipodi:docname="renfield2.svg"
   xmlns:inkscape="http://www.inkscape.org/namespaces/inkscape"
   xmlns:sodipodi="http://sodipodi.sourceforge.net/DTD/sodipodi-0.dtd"
   xmlns="http://www.w3.org/2000/svg"
   xmlns:svg="http://www.w3.org/2000/svg">
  <sodipodi:namedview
     id="namedview1"
     pagecolor="#505050"
     bordercolor="#ffffff"
     borderopacity="1"
     inkscape:showpageshadow="0"
     inkscape:pageopacity="0"
     inkscape:pagecheckerboard="1"
     inkscape:deskcolor="#505050"
     inkscape:document-units="mm"
     inkscape:zoom="0.4"
     inkscape:cx="656.25"
     inkscape:cy="232.5"
     inkscape:window-width="1600"
     inkscape:window-height="866"
     inkscape:window-x="0"
     inkscape:window-y="0"
     inkscape:window-maximized="1"
     inkscape:current-layer="layer1" />
  <defs
     id="defs1" />
  <g
     inkscape:label="Layer 1"
     inkscape:groupmode="layer"
     id="layer1"
     transform="translate(0.56471837,-138.83573)">
    <g
       id="g6">
      <rect
         style="fill:#ffffff;fill-opacity:1;stroke:#000000;stroke-width:0.79375;stroke-linecap:round;stroke-linejoin:round"
         id="rect2"
         width="252.83838"
         height="28.206249"
         x="62.025787"
         y="308.44659"
         inkscape:label="rect2" />
      <text
         xml:space="preserve"
         style="font-style:normal;font-variant:normal;font-weight:normal;font-stretch:normal;font-size:26.228px;line-height:1.3;font-family:'Nimbus Mono PS';-inkscape-font-specification:'Nimbus Mono PS, Normal';font-variant-ligatures:normal;font-variant-caps:normal;font-variant-numeric:normal;font-variant-east-asian:normal;text-align:center;letter-spacing:0px;word-spacing:0px;writing-mode:lr-tb;direction:ltr;text-anchor:middle;fill:#000000;fill-opacity:1;stroke:#000000;stroke-width:0.79375;stroke-linecap:round;stroke-linejoin:round"
         x="187.42303"
         y="329.90933"
         id="text2"
         transform="scale(0.99960306,1.0003971)"><tspan
           sodipodi:role="line"
           id="tspan2"
           style="font-style:normal;font-variant:normal;font-weight:normal;font-stretch:normal;font-size:26.228px;font-family:'Nimbus Mono PS';-inkscape-font-specification:'Nimbus Mono PS, Normal';font-variant-ligatures:normal;font-variant-caps:normal;font-variant-numeric:normal;font-variant-east-asian:normal;stroke-width:0.79375"
           x="187.42303"
           y="329.90933">r|e|n|f|i|e|l|d</tspan></text>
    </g>
    <path
       d="m 29.793689,166.28524 22.136627,-22.13662 q 7.861009,-7.86101 14.18982,-3.79618 0.33401,0.20826 1.283001,1.15725 l 6.326559,6.32656 q 0.858615,0.85862 1.247626,1.37338 3.125651,5.64117 -2.090287,12.12241 -0.915882,1.09656 -1.544755,1.72543 l -1.554567,1.46408 23.271422,1.76368 -11.194084,11.19409 -21.73084,-1.85819 q -2.027875,-0.14123 -3.194897,-1.68559 -3.473598,-4.4798 1.746121,-9.69952 l 3.836175,-3.83617 q 2.515525,-2.51553 0.707939,-4.32311 l -2.892152,-2.89216 q -1.581636,-1.58163 -4.179633,0.4741 -0.233911,0.14341 -0.674127,0.58363 l -9.433221,9.43322 24.809188,24.80918 -9.433222,9.43323 z"
       id="text7"
       style="font-size:58.2718px;line-height:1.3;font-family:'Continuum Bold';-inkscape-font-specification:'Continuum Bold, Normal';text-align:center;letter-spacing:0px;word-spacing:0px;text-anchor:middle;fill:#000000;stroke:#ccff00;stroke-width:0.264583;stroke-linecap:round;stroke-linejoin:round"
       aria-label="R" />
    <path
       d="m 95.850755,169.07688 22.136615,22.13661 q 7.86102,7.86102 3.79619,14.18981 -0.20827,0.334 -1.15725,1.28298 l -6.32655,6.32655 q -0.85861,0.85861 -1.37336,1.24763 -5.64117,3.12566 -12.12243,-2.09029 -1.096549,-0.91587 -1.725421,-1.54474 l -1.464065,-1.55458 -1.763722,23.27147 -11.194087,-11.19409 1.85823,-21.73087 q 0.141235,-2.02788 1.685597,-3.19491 4.479796,-3.47358 9.699506,1.74612 l 3.836162,3.83617 q 2.51554,2.51553 4.32311,0.70796 l 2.89215,-2.89215 q 1.58163,-1.58163 -0.4741,-4.17963 -0.14341,-0.23392 -0.58362,-0.67413 l -9.433213,-9.43321 -24.80921,24.80921 -9.433221,-9.43323 z"
       id="path7"
       style="font-size:58.2718px;line-height:1.3;font-family:'Continuum Bold';-inkscape-font-specification:'Continuum Bold, Normal';text-align:center;letter-spacing:0px;word-spacing:0px;text-anchor:middle;fill:#000000;stroke:#ccff00;stroke-width:0.26458299;stroke-linecap:round;stroke-linejoin:round;stroke-dasharray:none"
       aria-label="R" />
    <path
       d="m 93.188024,235.00503 -22.136628,22.13662 q -7.861005,7.86101 -14.189823,3.79618 -0.333995,-0.20827 -1.282982,-1.15726 l -6.326562,-6.32656 q -0.858611,-0.85861 -1.24764,-1.37337 -3.125634,-5.64116 2.090301,-12.1224 0.915882,-1.09656 1.544754,-1.72543 l 1.554567,-1.46407 -23.271418,-1.76369 11.194081,-11.19408 21.730841,1.85818 q 2.027875,0.14123 3.194892,1.68559 3.473591,4.47979 -1.74613,9.69951 l -3.836174,3.83617 q -2.515525,2.51553 -0.707941,4.32311 l 2.892151,2.89215 q 1.581643,1.58165 4.179638,-0.47408 0.233918,-0.14341 0.674134,-0.58363 l 9.433222,-9.43322 -24.809185,-24.80918 9.433222,-9.43322 z"
       id="path8"
       style="font-size:58.2718px;line-height:1.3;font-family:'Continuum Bold';-inkscape-font-specification:'Continuum Bold, Normal';text-align:center;letter-spacing:0px;word-spacing:0px;text-anchor:middle;fill:#000000;stroke:#ccff00;stroke-width:0.264583;stroke-linecap:round;stroke-linejoin:round"
       aria-label="R" />
    <path
       d="M 26.884808,231.96723 4.7481806,209.83061 Q -3.1128315,201.96959 0.95198593,195.6408 1.1602572,195.30681 2.109244,194.35782 l 6.326548,-6.32655 q 0.8586115,-0.85861 1.3733569,-1.24763 5.6411711,-3.12565 12.1224261,2.09029 1.096553,0.91588 1.725426,1.54475 l 1.464064,1.55457 1.763723,-23.27146 11.194087,11.19409 -1.858222,21.73087 q -0.141235,2.02789 -1.685597,3.19491 -4.479795,3.47359 -9.699513,-1.74613 l -3.836168,-3.83617 q -2.515532,-2.51553 -4.323109,-0.70795 l -2.892145,2.89214 q -1.581635,1.58164 0.474101,4.17964 0.143409,0.23392 0.583618,0.67413 l 9.433222,9.43322 24.809209,-24.80921 9.433221,9.43322 z"
       id="path9"
       style="font-size:58.2718px;line-height:1.3;font-family:'Continuum Bold';-inkscape-font-specification:'Continuum Bold, Normal';text-align:center;letter-spacing:0px;word-spacing:0px;text-anchor:middle;fill:#000000;stroke:#ccff00;stroke-width:0.264583;stroke-linecap:round;stroke-linejoin:round"
       aria-label="R" />
    <text
       xml:space="preserve"
       style="font-size:62.8393px;line-height:1.3;font-family:'Continuum Bold';-inkscape-font-specification:'Continuum Bold, Normal';text-align:center;letter-spacing:0px;word-spacing:0px;writing-mode:lr-tb;direction:ltr;text-anchor:middle;fill:#000000;fill-opacity:1;stroke:#ccff00;stroke-width:0.26458333;stroke-linecap:round;stroke-linejoin:round;stroke-dasharray:none"
       x="240.1371"
       y="207.4299"
       id="text1"
       transform="scale(0.99949075,1.0005095)"><tspan
         sodipodi:role="line"
         id="tspan1"
         style="fill:#000000;fill-opacity:1;stroke:#ccff00;stroke-width:0.26458333;stroke-dasharray:none"
         x="240.1371"
         y="207.4299">Renfield</tspan></text>
    <text
       xml:space="preserve"
       style="font-style:normal;font-variant:normal;font-weight:normal;font-stretch:normal;font-size:25.3405px;line-height:1.3;font-family:'Nimbus Mono PS';-inkscape-font-specification:'Nimbus Mono PS, Normal';font-variant-ligatures:normal;font-variant-caps:normal;font-variant-numeric:normal;font-variant-east-asian:normal;text-align:center;letter-spacing:0px;word-spacing:0px;writing-mode:lr-tb;direction:ltr;text-anchor:middle;fill:#000000;fill-opacity:1;stroke:#ccff00;stroke-width:0.26458333;stroke-linecap:round;stroke-linejoin:round;stroke-dasharray:none"
       x="237.77184"
       y="235.86473"
       id="text3"
       transform="scale(1.00004,0.99996)"><tspan
         sodipodi:role="line"
         id="tspan3"
         x="237.77184"
         y="235.86473"
         style="fill:#000000;stroke:#ccff00;stroke-width:0.26458333;stroke-dasharray:none">loggingsystems</tspan></text>
    <path
       id="path4"
       style="fill:none;stroke:#ccff00;stroke-width:0.26458333;stroke-linecap:round;stroke-linejoin:round;stroke-dasharray:none"
       d="m 366.09832,200.64513 a 9.2688437,9.2688437 0 0 1 -9.26884,9.26885 9.2688437,9.2688437 0 0 1 -9.26885,-9.26885 9.2688437,9.2688437 0 0 1 9.26885,-9.26884 9.2688437,9.2688437 0 0 1 9.26884,9.26884 z" />
    <path
       d="m 351.31767,198.35913 c 0.10161,-1.2954 0.38101,-2.1336 0.88901,-2.8702 0.9144,-1.2446 2.51459,-1.9812 4.36879,-1.9812 3.6068,0 5.91821,2.8448 5.91821,7.2644 0,4.2926 -2.28601,7.0104 -5.89281,7.0104 -3.175,0 -5.18159,-1.905 -5.4356,-5.1562 h 2.1336 c 0.3556,2.1336 1.4478,3.2004 3.2512,3.2004 2.3368,0 3.7338,-1.905 3.7338,-5.0546 0,-3.3274 -1.3716,-5.3086 -3.683,-5.3086 -1.778,0 -2.8956,1.0414 -3.1496,2.8956 z"
       id="text4"
       style="font-size:25.4px;line-height:1.3;font-family:'Nimbus Sans';-inkscape-font-specification:'Nimbus Sans, Normal';text-align:center;letter-spacing:0px;word-spacing:0px;text-anchor:middle;fill:#000000;fill-opacity:1;stroke:#ccff00;stroke-width:0.26458333;stroke-linecap:round;stroke-linejoin:round;stroke-dasharray:none"
       aria-label="c" />
  </g>
</svg>
